<svg width="36" height="32" viewBox="0 0 36 32" fill="none" xmlns="http://www.w3.org/2000/svg">
<path d="M16.0625 8.5C15.3125 8.3125 14.75 7.9375 14.3125 7.4375C13.8125 6.9375 13.5625 6.3125 13.5 5.5625C13.375 4.625 13.6875 3.8125 14.3125 3.0625C14.9375 2.375 15.8125 2 16.8125 2H17V0.5C17 0.375 17 0.3125 17.125 0.1875C17.25 0.0625 17.375 0 17.5 0H18.5C18.625 0 18.6875 0.0625 18.8125 0.1875C18.9375 0.3125 19 0.375 19 0.5V2H19.0625C20.0625 2 20.9375 2.3125 21.75 2.875C21.875 3 21.9375 3.1875 21.9375 3.3125C21.9375 3.4375 21.9375 3.5625 21.8125 3.6875L21.125 4.375C21 4.5 20.9375 4.5625 20.8125 4.5625C20.6875 4.5625 20.5625 4.5625 20.5 4.4375C20.0625 4.1875 19.625 4 19.125 4H16.8125C16.4375 4 16.125 4.125 15.875 4.375C15.625 4.625 15.5 4.9375 15.5 5.25C15.5 5.5625 15.5625 5.8125 15.75 6.0625C15.875 6.3125 16.125 6.4375 16.4375 6.5L20.125 7.5625C21 7.8125 21.625 8.375 22.125 9.1875C22.5625 10.0625 22.625 10.9375 22.3125 11.8125C22.0625 12.5 21.6875 13.0625 21.0625 13.4375C20.4375 13.8125 19.8125 14 19.0625 14H19V15.5C19 15.625 18.9375 15.75 18.8125 15.875C18.6875 16 18.625 16 18.5 16H17.5C17.375 16 17.25 16 17.125 15.875C17 15.75 17 15.625 17 15.5V14H16.9375C15.9375 14 15 13.75 14.25 13.125C14.125 13 14 12.875 14 12.75C14 12.625 14.0625 12.4375 14.1875 12.3125L14.875 11.625C14.9375 11.5625 15.0625 11.5 15.1875 11.5C15.3125 11.5 15.375 11.5 15.5 11.5625C15.875 11.875 16.375 12 16.9375 12H19.1875C19.5625 12 19.875 11.875 20.125 11.625C20.375 11.375 20.5 11.125 20.5 10.8125C20.5 10.5 20.375 10.25 20.25 10C20.0625 9.75 19.8125 9.625 19.5625 9.5L16.0625 8.5ZM34.875 20.875C35.625 21.5625 36 22.4375 36 23.4375C35.9375 24.5 35.5 25.3125 34.75 25.9375L28.4375 31C27.5625 31.6875 26.625 32 25.5625 32H0.5C0.375 32 0.25 32 0.125 31.875C0 31.75 0 31.625 0 31.5V30.5C0 30.375 0 30.3125 0.125 30.1875C0.25 30.0625 0.375 30 0.5 30H25.5C26.125 30 26.6875 29.8125 27.1875 29.4375L33.5 24.375C33.8125 24.125 34 23.8125 34 23.375C34 23 33.8125 22.625 33.5625 22.375C33.3125 22.125 33 22.0625 32.6875 22.0625C32.3125 22.0625 32.0625 22.1875 31.8125 22.3125L27.9375 25.4375C27.4375 25.8125 26.875 26 26.25 26H15C14.6875 26 14.4375 25.9375 14.25 25.75C14.0625 25.5625 14 25.3125 14 25C14 24.75 14.0625 24.5 14.25 24.3125C14.4375 24.125 14.6875 24 15 24H20.5C20.875 24 21.25 23.875 21.5625 23.5625C21.8125 23.3125 22 22.9375 22 22.5C22 22.125 21.8125 21.75 21.5625 21.4375C21.25 21.1875 20.875 21 20.5 21H11.3125C10.4375 21 9.625 21.3125 8.9375 21.8125L6 24H0.5C0.375 24 0.25 24 0.125 23.875C0 23.75 0 23.625 0 23.5V22.5C0 22.375 0 22.3125 0.125 22.1875C0.25 22.0625 0.375 22 0.5 22H5.3125L7.75 20.1875C8.75 19.4375 9.9375 19 11.3125 19H20.3125C21.1875 19 22 19.3125 22.6875 19.875C23.375 20.4375 23.8125 21.125 23.9375 22C24.0625 22.75 23.9375 23.375 23.6875 24H26.25C26.375 24 26.5625 24 26.6875 23.875L30.5 20.75C31.125 20.25 31.875 20 32.75 20C33.5625 20 34.25 20.3125 34.875 20.875Z" fill="#6852ED"/>
</svg>
