<svg width="18" height="18" viewBox="0 0 18 18" fill="none" xmlns="http://www.w3.org/2000/svg">
<path d="M14.75 1.1875C15.0938 1 15.4688 0.96875 15.8438 1.0625C16.2188 1.15625 16.5 1.34375 16.7188 1.65625C16.9375 1.96875 17.0312 2.34375 16.9688 2.71875L15.125 14.8438C15.0312 15.3438 14.7812 15.6875 14.375 15.9062C14.125 16.0312 13.9062 16.0938 13.6562 16.0938C13.4375 16.0938 13.25 16.0625 13.0625 16L9.5625 14.5312L8.21875 16.4062C7.90625 16.7812 7.5625 16.9688 7.125 17C6.6875 17.0312 6.3125 16.9062 6 16.625C5.65625 16.3438 5.5 15.9688 5.5 15.5V12.875L1.9375 11.375C1.5625 11.25 1.28125 11 1.125 10.625C0.96875 10.2812 0.9375 9.9375 1.0625 9.5625C1.15625 9.1875 1.375 8.90625 1.75 8.6875L14.75 1.1875ZM7 15.5L8.15625 13.9375L7 13.4688V15.5ZM13.6562 14.5938L15.5 2.5L2.5 10L5.875 11.4062L12.4688 5.625C12.5938 5.5 12.75 5.46875 12.9375 5.53125C13.0938 5.59375 13.2188 5.6875 13.2812 5.84375C13.3438 6 13.3125 6.15625 13.2188 6.28125L8.84375 12.625L13.6562 14.5938Z" fill="#6852ED"/>
</svg>
